<?xml version="1.0" encoding="iso-8859-1"?>
<!-- Generator: Adobe Illustrator 18.0.0, SVG Export Plug-In . SVG Version: 6.00 Build 0)  -->
<!DOCTYPE svg PUBLIC "-//W3C//DTD SVG 1.1//EN" "http://www.w3.org/Graphics/SVG/1.1/DTD/svg11.dtd">
<svg version="1.1" id="Capa_1" xmlns="http://www.w3.org/2000/svg" xmlns:xlink="http://www.w3.org/1999/xlink" x="0px" y="0px"
	 viewBox="0 0 297 297" style="enable-background:new 0 0 297 297;" xml:space="preserve">
<path d="M264.867,102.44H210.48V73.662c0-20.771-16.899-37.67-37.671-37.67H37.67C16.899,35.992,0,52.891,0,73.662v142.67
	c0,5.56,4.508,10.068,10.068,10.068h7.272c0.747,19.209,16.6,34.608,35.988,34.608s35.241-15.399,35.988-34.608h118.368
	c0.747,19.209,16.6,34.608,35.988,34.608s35.241-15.399,35.988-34.608h7.272c5.56,0,10.068-4.508,10.068-10.068v-81.76
	C297,116.854,282.585,102.44,264.867,102.44z M264.867,122.575c6.616,0,11.998,5.382,11.998,11.997v19.78H210.48v-31.776H264.867z
	 M274.438,206.264c-6.332-10.368-17.754-17.304-30.766-17.304c-13.012,0-24.434,6.936-30.766,17.304h-2.426v-31.776h66.385v31.776
	H274.438z M20.136,73.662c0-9.669,7.865-17.534,17.534-17.534h135.14c9.669,0,17.535,7.865,17.535,17.534v132.602H84.094
	c-6.332-10.368-17.754-17.304-30.766-17.304s-24.434,6.936-30.766,17.304h-2.426V73.662z M53.328,240.872
	c-8.761,0-15.888-7.127-15.888-15.888c0-8.761,7.127-15.888,15.888-15.888s15.888,7.127,15.888,15.888
	C69.216,233.745,62.089,240.872,53.328,240.872z M243.672,240.872c-8.761,0-15.888-7.127-15.888-15.888
	c0-8.761,7.127-15.888,15.888-15.888c8.761,0,15.888,7.127,15.888,15.888C259.56,233.745,252.433,240.872,243.672,240.872z"/>
<g>
</g>
<g>
</g>
<g>
</g>
<g>
</g>
<g>
</g>
<g>
</g>
<g>
</g>
<g>
</g>
<g>
</g>
<g>
</g>
<g>
</g>
<g>
</g>
<g>
</g>
<g>
</g>
<g>
</g>
</svg>
