<?xml version="1.0" encoding="iso-8859-1"?>
<!-- Generator: Adobe Illustrator 19.0.0, SVG Export Plug-In . SVG Version: 6.00 Build 0)  -->
<svg version="1.1" id="Layer_1" xmlns="http://www.w3.org/2000/svg" xmlns:xlink="http://www.w3.org/1999/xlink" x="0px" y="0px"
	 viewBox="0 0 512 512" style="enable-background:new 0 0 512 512;" xml:space="preserve">
<g>
	<g>
		<rect x="130.723" y="324.085" width="250.553" height="16.34"/>
	</g>
</g>
<g>
	<g>
		<rect x="130.723" y="285.957" width="250.553" height="16.34"/>
	</g>
</g>
<g>
	<g>
		<rect x="130.723" y="247.83" width="250.553" height="16.34"/>
	</g>
</g>
<g>
	<g>
		<rect x="130.723" y="400.34" width="250.553" height="16.34"/>
	</g>
</g>
<g>
	<g>
		<rect x="130.723" y="362.213" width="250.553" height="16.34"/>
	</g>
</g>
<g>
	<g>
		<rect x="201.532" y="122.553" width="108.936" height="16.34"/>
	</g>
</g>
<g>
	<g>
		<path d="M471.149,449.362V106.213h21.787V46.298H19.064v59.915h21.787v343.149H0v16.34h512v-16.34H471.149z M35.404,89.872V62.638
			h441.191v27.234H35.404z M351.319,106.213v49.021H160.681v-49.021H351.319z M400.34,449.362H111.66V215.149H400.34V449.362z
			 M454.809,138.894h-57.192v16.34h57.192v294.128h-38.128V215.149h19.064v-16.34H76.255v16.34h19.064v234.213H57.192V155.234
			h57.191v-16.34H57.192v-32.681h87.149v65.362H367.66v-65.362h87.149V138.894z"/>
	</g>
</g>
<g>
</g>
<g>
</g>
<g>
</g>
<g>
</g>
<g>
</g>
<g>
</g>
<g>
</g>
<g>
</g>
<g>
</g>
<g>
</g>
<g>
</g>
<g>
</g>
<g>
</g>
<g>
</g>
<g>
</g>
</svg>
