<?xml version="1.0" encoding="iso-8859-1"?>
<!-- Generator: Adobe Illustrator 19.0.0, SVG Export Plug-In . SVG Version: 6.00 Build 0)  -->
<svg version="1.1" id="Layer_1" xmlns="http://www.w3.org/2000/svg" xmlns:xlink="http://www.w3.org/1999/xlink" x="0px" y="0px"
	 viewBox="0 0 511.999 511.999" style="enable-background:new 0 0 511.999 511.999;" xml:space="preserve">
<g>
	<g>
		<path d="M488.178,312.185h-55.6v-16.173h-15.621v16.173h-8.331v-96.363H256.577v40.615h-96.852v55.747H47.252v-8.883h56.237
			v-54.154H47.252v-73.941h224.946v33.325h15.621v-48.947h-15.621V72.107H72.246v87.479H31.631v152.599h-7.809
			C10.687,312.185,0,322.871,0,336.008c0,13.135,10.687,23.822,23.822,23.822h464.354c13.135,0,23.822-10.687,23.822-23.822
			C512,322.871,501.313,312.185,488.178,312.185z M47.252,264.769h40.615v22.911H47.252V264.769z M159.726,87.728h24.994v8.331
			h-24.994V87.728z M87.868,87.728h56.237v23.953h56.237V87.728h56.237v71.858H87.868V87.728z M272.199,272.059h32.284v15.621
			h-32.284V272.059z M272.199,303.302h47.905v-46.864h-47.905v-24.994h56.237v15.621h15.621v-15.621h48.947v80.741H272.199V303.302z
			 M175.347,272.059h33.325v15.621h15.621v-15.621h32.284v40.126h-81.231V272.059z M488.178,344.209H23.822
			c-4.523,0-8.201-3.679-8.201-8.201c0-4.523,3.679-8.201,8.201-8.201h464.354c4.522,0,8.201,3.679,8.201,8.201
			C496.379,340.53,492.699,344.209,488.178,344.209z"/>
	</g>
</g>
<g>
	<g>
		<path d="M71.859,376.233c-5.944,0-11.51,1.642-16.275,4.49V367.87H31.631v15.621h8.331v24.994h0.079
			c0.228,17.356,14.409,31.407,31.818,31.407c17.551,0,31.829-14.278,31.829-31.829S89.41,376.233,71.859,376.233z M71.859,424.27
			c-8.937,0-16.208-7.27-16.208-16.208s7.27-16.208,16.208-16.208s16.208,7.27,16.208,16.208S80.796,424.27,71.859,424.27z"/>
	</g>
</g>
<g>
	<g>
		<rect x="63.912" y="400.154" width="15.621" height="15.621"/>
	</g>
</g>
<g>
	<g>
		<path d="M448.146,376.233c-6.056,0-11.721,1.701-16.546,4.649l-0.161-13.014h-23.856v15.621h8.428l0.306,24.669h0.002
			c0.053,17.506,14.309,31.732,31.827,31.732c17.551,0,31.829-14.278,31.829-31.829S465.698,376.233,448.146,376.233z
			 M448.146,424.27c-8.938,0-16.208-7.27-16.208-16.208s7.271-16.208,16.208-16.208c8.936,0,16.208,7.27,16.208,16.208
			S457.084,424.27,448.146,424.27z"/>
	</g>
</g>
<g>
	<g>
		<rect x="439.864" y="400.154" width="15.621" height="15.621"/>
	</g>
</g>
<g>
	<g>
		<path d="M399.252,184.58v-40.615h-95.811v15.621h16.663v40.615h96.852v87.479h15.621v-103.1H399.252z M352.388,184.58h-16.663
			v-24.994h16.663V184.58z M383.631,184.58h-15.621v-24.994h15.621V184.58z"/>
	</g>
</g>
<g>
	<g>
		<path d="M492.18,128.045h-32.025c-9.594,0-17.612,6.854-19.43,15.92h-23.769v31.243h15.621v-15.621h11.633
			c3.612,4.9,9.405,8.098,15.945,8.098h32.025c10.929,0,19.819-8.892,19.819-19.82S503.107,128.045,492.18,128.045z M492.18,152.063
			h-32.025c-2.315,0-4.198-1.884-4.198-4.199s1.884-4.198,4.198-4.198h32.025c2.315,0,4.198,1.884,4.198,4.198
			C496.378,150.179,494.494,152.063,492.18,152.063z"/>
	</g>
</g>
<g>
	<g>
		<rect x="72.243" y="191.87" width="71.858" height="15.621"/>
	</g>
</g>
<g>
	<g>
		<rect x="72.243" y="215.823" width="23.953" height="15.621"/>
	</g>
</g>
<g>
	<g>
		<rect x="111.817" y="215.823" width="56.237" height="15.621"/>
	</g>
</g>
<g>
	<g>
		<rect x="103.486" y="135.633" width="56.237" height="15.621"/>
	</g>
</g>
<g>
</g>
<g>
</g>
<g>
</g>
<g>
</g>
<g>
</g>
<g>
</g>
<g>
</g>
<g>
</g>
<g>
</g>
<g>
</g>
<g>
</g>
<g>
</g>
<g>
</g>
<g>
</g>
<g>
</g>
</svg>
